<?xml version="1.0" encoding="utf-8"?>
<!-- Generator: Adobe Illustrator 16.0.0, SVG Export Plug-In . SVG Version: 6.00 Build 0)  -->
<!DOCTYPE svg PUBLIC "-//W3C//DTD SVG 1.1//EN" "http://www.w3.org/Graphics/SVG/1.1/DTD/svg11.dtd">
<svg version="1.1" id="Layer_1" xmlns="http://www.w3.org/2000/svg" xmlns:xlink="http://www.w3.org/1999/xlink" x="0px" y="0px"
	 width="512px" height="512px" viewBox="0 0 512 512" enable-background="new 0 0 512 512" xml:space="preserve">
<rect fill="#11122E" width="513" height="512"/>
<circle fill="#70CACC" stroke="#FFFFFF" stroke-width="3" stroke-miterlimit="10" cx="256.217" cy="300.333" r="155.251"/>
<path fill="#7AA3D6" stroke="#FFFFFF" stroke-width="3" stroke-miterlimit="10" d="M405.8,409.994
	c8.032,8.035,8.401,20.687,0.824,28.262l-13.865,13.865c-7.576,7.579-20.229,7.211-28.262-0.824L105.855,192.656
	c-8.032-8.032-8.4-20.685-0.825-28.26l13.867-13.866c7.576-7.576,20.229-7.207,28.26,0.824L405.8,409.994z"/>
<polygon fill="#BE2227" points="144.809,185.17 176.382,216.743 169.27,223.855 137.696,192.283 132.824,180.298 138.816,182.734 
	"/>
<circle fill="#FFFFFF" cx="13.448" cy="299.206" r="10.397"/>
<circle fill="#FFFFFF" cx="85.951" cy="125.485" r="10.398"/>
<circle fill="#FFFFFF" cx="428.124" cy="125.485" r="10.398"/>
<circle fill="#FFFFFF" cx="256.217" cy="56.438" r="10.398"/>
<circle fill="#FFFFFF" cx="500.603" cy="298.717" r="10.397"/>
<circle fill="#FFFFFF" cx="33.538" cy="201.555" r="7.165"/>
<circle fill="#FFFFFF" cx="162.105" cy="73.999" r="7.164"/>
<circle fill="#FFFFFF" cx="349.298" cy="73.999" r="7.164"/>
<circle fill="#FFFFFF" cx="477.331" cy="201.555" r="7.165"/>
<g>
	<path fill="#11122E" d="M217.758,250.825l-5.708-5.708l-16.341,16.341l-4.521-4.521l16.341-16.341l-5.681-5.681l3.67-3.67
		l15.91,15.91L217.758,250.825z"/>
	<path fill="#11122E" d="M216.2,281.949l-4.396-4.396l2.177-2.177l-0.07-0.07c-2.772,0.596-5.071-0.019-6.894-1.842
		c-3.313-3.313-2.964-6.973,1.046-10.982l8.624-8.625l4.396,4.395l-8.233,8.234c-2.019,2.019-2.228,3.828-0.628,5.428
		c0.791,0.791,1.701,1.147,2.729,1.068c1.028-0.079,2.016-0.593,2.965-1.542l8.178-8.178l4.396,4.396L216.2,281.949z"/>
	<path fill="#11122E" d="M235.144,300.893l-4.396-4.396l7.94-7.94c2.214-2.214,2.53-4.112,0.948-5.694
		c-0.763-0.763-1.684-1.098-2.763-1.005c-1.08,0.093-2.07,0.592-2.972,1.494l-8.15,8.149l-4.41-4.41l14.29-14.29l4.41,4.41
		l-2.261,2.261l0.056,0.056c2.791-0.688,5.191-0.028,7.202,1.982c3.162,3.162,2.781,6.707-1.145,10.633L235.144,300.893z"/>
	<path fill="#11122E" d="M258.789,312.759l-9.322-9.321c-1.926,2.224-1.657,4.567,0.809,7.033c1.572,1.572,3.326,2.582,5.261,3.028
		l-3.182,3.182c-2.028-0.614-4.099-1.978-6.21-4.089c-2.307-2.307-3.459-4.738-3.454-7.291c0.004-2.555,1.151-4.975,3.44-7.264
		c2.373-2.372,4.94-3.563,7.703-3.572c2.764-0.01,5.148,0.99,7.158,3c2.084,2.084,3.078,4.314,2.98,6.691s-1.208,4.626-3.329,6.747
		L258.789,312.759z M257.407,305.963c2.046-2.046,2.243-3.897,0.587-5.554c-0.707-0.707-1.613-1.025-2.716-0.956
		s-2.146,0.486-3.132,1.249L257.407,305.963z"/>
	<path fill="#11122E" d="M281.101,346.85l-16.118-16.118l2.596-2.596l24.003-3.489l-9.518-9.518l3.67-3.67l15.351,15.351
		l-2.525,2.525l-23.864,3.796l10.063,10.063L281.101,346.85z"/>
	<path fill="#11122E" d="M289.451,355.2l-4.41-4.41l14.29-14.29l4.41,4.41L289.451,355.2z M303.824,336.472
		c-0.744-0.744-1.133-1.574-1.165-2.491c-0.032-0.915,0.271-1.695,0.914-2.338c0.66-0.66,1.438-0.962,2.33-0.906
		c0.894,0.056,1.712,0.456,2.456,1.2c0.754,0.754,1.156,1.574,1.208,2.464c0.052,0.888-0.254,1.662-0.914,2.322
		c-0.67,0.67-1.453,0.984-2.352,0.943C305.403,337.623,304.578,337.226,303.824,336.472z"/>
	<path fill="#11122E" d="M308.909,374.658l-5.288-5.288l2.525-11.652l-0.056-0.056l-7.089,7.089l-4.41-4.41l21.156-21.156l4.41,4.41
		l-13.467,13.467l0.056,0.056l10.857-2.344l5.232,5.232l-11.834,1.59L308.909,374.658z"/>
	<path fill="#11122E" d="M316.409,382.158L312,377.749l14.29-14.29l4.409,4.409L316.409,382.158z M330.783,363.431
		c-0.745-0.745-1.133-1.574-1.165-2.491c-0.033-0.916,0.271-1.695,0.914-2.338c0.66-0.66,1.438-0.963,2.33-0.906
		c0.894,0.056,1.711,0.455,2.456,1.2c0.754,0.754,1.156,1.574,1.207,2.463c0.052,0.888-0.254,1.662-0.914,2.322
		c-0.67,0.67-1.453,0.984-2.352,0.943C332.362,364.582,331.537,364.185,330.783,363.431z"/>
</g>
</svg>
